# xmcd
#
# Track frame offsets:
#	150
#	20092
#	38106
#	49729
#	71386
#	82361
#	105946
#	116051
#	129318
#	149831
#	169022
#	180167
#	190188
#	207873
#	218705
#	231350
#	241917
#	253225
#	268546
#	289694
#
# Disc length: 4018 seconds
#
# Revision: 1
# Processed by: cddbd v1.5.2PL0 Copyright (c) Steve Scherf et al.
# Submitted via: audiograbber 1.83.01
#
DISCID=270fb014
DTITLE=Paul Anka - A Sentimental Journey of the Heart CD 3/3
DYEAR=1900
DGENRE=Jazz
TTITLE0=My way
TTITLE1=Closing Doors
TTITLE2=Did You Have A Happy Birthday
TTITLE3=Bring the Wine
TTITLE4=Hello Jim
TTITLE5=Jubilation
TTITLE6=In My Imagination
TTITLE7=Oh Such a Stranger
TTITLE8=The Painter
TTITLE9=Living Isn't Living
TTITLE10=I Can't Say a Word
TTITLE11=Sokiian
TTITLE12=Papa
TTITLE13=Crying in the Wind
TTITLE14=Poor Old World
TTITLE15=Memphis Tennessee
TTITLE16=As If There Was No Tomorrow
TTITLE17=Can't Get Along Very Well Without You
TTITLE18=Happier
TTITLE19=Longest Day
EXTD=Corrected
EXTT0=
EXTT1=
EXTT2=
EXTT3=
EXTT4=
EXTT5=
EXTT6=
EXTT7=
EXTT8=
EXTT9=
EXTT10=
EXTT11=
EXTT12=
EXTT13=
EXTT14=
EXTT15=
EXTT16=
EXTT17=
EXTT18=
EXTT19=
PLAYORDER=
